<?xml version="1.0"?>
<svg xmlns="http://www.w3.org/2000/svg" id="Outline" viewBox="0 0 64 64" width="512px" height="512px"><g><path d="M55.627,33.529A19.047,19.047,0,0,1,52,22.343a11.456,11.456,0,0,0-4.786-9.354A9,9,0,0,0,56,4a1,1,0,0,0-1-1H51a8.968,8.968,0,0,0-6.451,2.738c.124-.855.264-1.7.431-2.542A1,1,0,0,0,44,2H39a1,1,0,0,0-1,1v.738a52.522,52.522,0,0,0,.561,7.561,11.01,11.01,0,0,0-6.048,3.721,1,1,0,1,0,1.545,1.269A8.887,8.887,0,0,1,41.6,13.02,9.2,9.2,0,0,1,50,22.343,21.036,21.036,0,0,0,54,34.7,15.993,15.993,0,0,1,40.131,59.978c-.1-.006-.592-.062-.592-.062a1,1,0,1,0-.178,1.992S40.683,62,41.012,62A17.985,17.985,0,0,0,55.627,33.529ZM51,5h2.929A7.011,7.011,0,0,1,47,11H44.071A7.011,7.011,0,0,1,51,5ZM40.539,11.017A50.78,50.78,0,0,1,40,4H42.8a52.769,52.769,0,0,0-.728,6.947c0,.038-.013.075-.017.113-.107-.01-.212-.03-.32-.037A11.007,11.007,0,0,0,40.539,11.017Z" fill="#EEC344"/><path d="M32.279,41.56c-.866-.716-2.115-1.51-3.156-1.232a1.569,1.569,0,0,0-.972.757c-.579,1.01-.2,2.629.266,4.34l.068.25A3,3,0,0,0,32.159,47.8a3,3,0,0,0,2.121-3.675A6.454,6.454,0,0,0,32.279,41.56Zm-.03,3.839a.994.994,0,0,1-.607.466,1.006,1.006,0,0,1-1.225-.708l-.071-.262a10.342,10.342,0,0,1-.494-2.558,6.453,6.453,0,0,1,2.5,2.3A.992.992,0,0,1,32.249,45.4Z" fill="#EEC344"/><path d="M24.547,42.051a1.559,1.559,0,0,0-1.22-.17c-1.8.483-2.945,4.464-2.569,5.865a3.005,3.005,0,0,0,2.9,2.224,3,3,0,0,0,2.9-3.778l-.066-.249C26.057,44.294,25.553,42.636,24.547,42.051Zm-.633,5.885a.985.985,0,0,1-.759-.1,1,1,0,0,1-.466-.607,6.652,6.652,0,0,1,1-3.265,10.107,10.107,0,0,1,.864,2.484l.069.262A1,1,0,0,1,23.914,47.936Z" fill="#EEC344"/><path d="M42.346,53.413A17.974,17.974,0,0,0,38.42,30.1a19.057,19.057,0,0,1-6.4-9.868,11.308,11.308,0,0,0-10.5-8.466,50.51,50.51,0,0,1-1.238-8.21,1,1,0,0,0-1.257-.9L14.2,3.951a1,1,0,0,0-.707,1.226l.192.712a52.459,52.459,0,0,0,2.489,7.137,10.9,10.9,0,0,0-4.207,3.918A11.038,11.038,0,0,0,10.683,25.6l.088.328a18.722,18.722,0,0,1,.583,6.044,1,1,0,0,0,2,.129,20.716,20.716,0,0,0-.648-6.691l-.088-.328a9,9,0,0,1,5.253-10.644c.006,0,.012,0,.018,0l.007-.006a9.244,9.244,0,0,1,1.672-.506A9.2,9.2,0,0,1,30.09,20.753a21.035,21.035,0,0,0,7.064,10.9A15.991,15.991,0,0,1,30.3,59.66,16.045,16.045,0,0,1,12.012,49.6a15.8,15.8,0,0,1-.034-11.074,23.61,23.61,0,0,0,.7-2.312,1,1,0,1,0-1.938-.494,21.541,21.541,0,0,1-.643,2.117A17.982,17.982,0,0,0,27.03,62a18,18,0,0,0,15.316-8.59ZM18.018,12.257a50.539,50.539,0,0,1-2.334-6.633l2.7-.724a52.91,52.91,0,0,0,1.12,7.012c-.11.019-.22.027-.33.049A11.291,11.291,0,0,0,18.018,12.257Z" fill="#EEC344"/><path d="M13.888,48.909a14.047,14.047,0,0,0,13.129,9.1,13.826,13.826,0,0,0,2.861-.3c.251-.052.5-.113.745-.178l.031-.008A14,14,0,0,0,39.82,38.374a1,1,0,1,0-1.832.8,12.326,12.326,0,0,1,.605,1.721,12,12,0,0,1-8.484,14.7l-.022.006c-.2.053-.41.1-.621.148a12.025,12.025,0,0,1-13.7-7.533,11.841,11.841,0,0,1-.03-8.3,25.643,25.643,0,0,0,.832-15.538l-.087-.326a5,5,0,0,1,3.541-6.125c.106-.029.215-.055.329-.077a5.265,5.265,0,0,1,5.878,3.945,25.017,25.017,0,0,0,8.4,12.96,11.981,11.981,0,0,1,1.4,1.346,1,1,0,1,0,1.5-1.323A14.059,14.059,0,0,0,35.889,33.2a23.032,23.032,0,0,1-7.732-11.929,7.289,7.289,0,0,0-8.2-5.389c-.157.031-.313.068-.461.108a7.007,7.007,0,0,0-4.951,8.574l.088.327a23.658,23.658,0,0,1-.778,14.33A13.815,13.815,0,0,0,13.888,48.909Z" fill="#EEC344"/></g></svg>
