<?xml version="1.0"?>
<svg xmlns="http://www.w3.org/2000/svg" height="512px" version="1.1" viewBox="0 0 512 512.00102" width="512px">
<g id="surface1">
<path d="M 60.753906 509.109375 L 288.628906 427.402344 C 288.695312 427.378906 288.765625 427.355469 288.832031 427.328125 C 319.488281 415.835938 327.96875 376.5 304.851562 353.382812 L 242.339844 290.871094 L 318.28125 214.929688 L 350.097656 246.746094 C 355.957031 252.605469 365.453125 252.605469 371.308594 246.746094 C 377.167969 240.890625 377.167969 231.394531 371.308594 225.535156 L 360.703125 214.929688 L 499.03125 76.605469 C 516.324219 59.3125 516.324219 31.171875 499.027344 13.875 L 498.125 12.96875 C 480.832031 -4.324219 452.691406 -4.324219 435.398438 12.96875 L 297.070312 151.296875 L 286.464844 140.691406 C 280.609375 134.835938 271.113281 134.835938 265.253906 140.691406 C 259.398438 146.550781 259.398438 156.046875 265.253906 161.902344 L 297.074219 193.71875 L 221.132812 269.660156 L 158.621094 207.152344 C 135.46875 183.996094 96.152344 192.5625 84.675781 223.167969 C 84.648438 223.238281 84.625 223.304688 84.601562 223.375 L 2.894531 451.246094 C -3.324219 467.949219 0.636719 486.144531 13.246094 498.753906 C 25.894531 511.402344 44.101562 515.304688 60.753906 509.109375 Z M 456.609375 34.183594 C 462.207031 28.582031 471.3125 28.585938 476.914062 34.183594 L 477.820312 35.089844 C 483.417969 40.6875 483.417969 49.796875 477.820312 55.394531 L 339.492188 193.722656 L 318.28125 172.507812 Z M 31.023438 461.671875 C 31.046875 461.601562 31.074219 461.535156 31.097656 461.464844 L 112.792969 233.617188 C 116.671875 223.445312 129.703125 220.65625 137.410156 228.359375 L 199.917969 290.871094 L 168.101562 322.6875 C 162.246094 328.542969 162.246094 338.039062 168.101562 343.898438 C 173.957031 349.753906 183.457031 349.753906 189.3125 343.898438 L 221.128906 312.082031 L 283.640625 374.589844 C 291.351562 382.304688 288.546875 395.332031 278.386719 399.207031 L 50.535156 480.90625 C 50.46875 480.929688 50.398438 480.953125 50.332031 480.980469 C 41.941406 484.128906 36.0625 479.144531 34.460938 477.542969 C 32.859375 475.941406 27.875 470.0625 31.023438 461.671875 Z M 31.023438 461.671875 " style=" fill-rule:nonzero;fill-opacity:1;" stroke="#EEC344" fill="#EEC344"/>
</g>
</svg>
